<svg xmlns="http://www.w3.org/2000/svg" data-name="Layer 1" viewBox="0 0 594.69 432.85"><path d="M279.29 197.1v2.24c0 6.46-1.97 10.59-6.37 12.65 5.29 2.06 7.36 6.82 7.36 13.46v5.12c0 9.69-5.11 14.9-14.99 14.9h-15.52v-62.82h14.9c10.23 0 14.63 4.76 14.63 14.45Zm-19.65-5.47v16.6h3.86c3.68 0 5.92-1.62 5.92-6.64v-3.5c0-4.49-1.53-6.46-5.03-6.46h-4.76Zm0 25.57v19.29h5.65c3.32 0 5.11-1.53 5.11-6.19v-5.47c0-5.83-1.88-7.63-6.37-7.63h-4.4ZM296.06 209.13h13.55v8.97h-13.55v18.4h17.05v8.97h-26.92v-62.82h26.92v8.97h-17.05v17.5ZM332.14 220.44l-3.05 5.74v19.29h-9.87v-62.82h9.87v27.37l12.92-27.37h9.87l-13.73 28 13.73 34.82h-10.14l-9.6-25.04ZM369.29 220.44l-3.05 5.74v19.29h-9.87v-62.82h9.87v27.37l12.92-27.37h9.87l-13.73 28 13.73 34.82h-10.14l-9.6-25.04ZM425.46 245.47h-9.96l-1.71-11.4h-12.11l-1.71 11.4h-9.06l10.05-62.82h14.45l10.05 62.82Zm-22.52-19.92h9.51l-4.76-31.77-4.76 31.77ZM279.29 271.88v2.24c0 6.46-1.97 10.59-6.37 12.65 5.29 2.06 7.36 6.82 7.36 13.46v5.12c0 9.69-5.11 14.9-14.99 14.9h-15.52v-62.82h14.9c10.23 0 14.63 4.76 14.63 14.45Zm-19.65-5.47v16.6h3.86c3.68 0 5.92-1.62 5.92-6.64v-3.5c0-4.49-1.53-6.46-5.03-6.46h-4.76Zm0 25.57v19.29h5.65c3.32 0 5.11-1.53 5.11-6.19v-5.47c0-5.83-1.88-7.63-6.37-7.63h-4.4ZM306.83 320.25c-.54-1.62-.9-2.6-.9-7.72v-9.87c0-5.83-1.97-7.99-6.46-7.99h-3.41v25.58h-9.87v-62.82h14.9c10.23 0 14.63 4.76 14.63 14.45v4.94c0 6.46-2.06 10.68-6.46 12.74 4.93 2.06 6.55 6.82 6.55 13.37v9.69c0 3.05.09 5.29 1.08 7.63h-10.05Zm-10.77-53.84v19.29h3.86c3.68 0 5.92-1.62 5.92-6.64v-6.19c0-4.49-1.53-6.46-5.03-6.46h-4.76ZM321.46 272.51c0-10.05 5.29-15.79 14.99-15.79s14.99 5.74 14.99 15.79v32.66c0 10.05-5.29 15.79-14.99 15.79s-14.99-5.74-14.99-15.79v-32.66Zm9.87 33.29c0 4.49 1.97 6.19 5.11 6.19s5.12-1.71 5.12-6.19v-33.92c0-4.49-1.97-6.19-5.12-6.19s-5.11 1.71-5.11 6.19v33.92ZM354.93 257.44h30.51v8.97h-10.32v53.84h-9.87v-53.84h-10.32v-8.97ZM399.62 320.25h-9.87v-62.82h9.87v26.92h11.22v-26.92h10.05v62.82h-10.05v-26.92h-11.22v26.92ZM437.93 283.91h13.55v8.97h-13.55v18.4h17.05v8.97h-26.92v-62.82h26.92v8.97h-17.05v17.5ZM481.72 320.25c-.54-1.62-.9-2.6-.9-7.72v-9.87c0-5.83-1.97-7.99-6.46-7.99h-3.41v25.58h-9.87v-62.82h14.9c10.23 0 14.63 4.76 14.63 14.45v4.94c0 6.46-2.06 10.68-6.46 12.74 4.94 2.06 6.55 6.82 6.55 13.37v9.69c0 3.05.09 5.29 1.08 7.63h-10.05Zm-10.77-53.84v19.29h3.86c3.68 0 5.92-1.62 5.92-6.64v-6.19c0-4.49-1.53-6.46-5.03-6.46h-4.76ZM510.44 256.72c9.6 0 14.54 5.74 14.54 15.79v1.97h-9.33v-2.6c0-4.49-1.79-6.19-4.94-6.19s-4.94 1.71-4.94 6.19c0 12.92 19.29 15.34 19.29 33.29 0 10.05-5.03 15.79-14.72 15.79s-14.72-5.74-14.72-15.79v-3.86h9.33v4.49c0 4.49 1.97 6.1 5.12 6.1s5.12-1.62 5.12-6.1c0-12.92-19.29-15.35-19.29-33.29 0-10.05 4.94-15.79 14.54-15.79ZM539.78 310.74v9.51h-9.51v-9.51h9.51Z"/><path stroke="#000" stroke-miterlimit="10" stroke-width="4" d="M226.77 298.43v-62.86c-.1-9.32-5.6-17.79-14.1-21.65l-3.14-1.4c-.55-.24-.51-.96 0-1.23 10.24-5.8 9.94-16.22 9.94-16.22v-68.35c0-9.73-5.05-11.64-5.05-11.64s-12.02-8.09-21.54-13.66c-7.58-4.51-14.34-3-16.97-2.12-.75.24-1.57.17-2.32-.24-4.23-2.56-19.19-11.47-24.24-13.38-5.91-2.25-11.68.85-11.68.85s-58.08 34.79-63.3 38.07c-5.19 3.35-4.34 12.53-4.34 12.53l-.38 166.07c-.44 8.57 1.37 10.11 4.03 13.04 2.7 2.9 20.12 11.93 20.12 11.93-1.81-3.31-4.79-10.33-4.79-14.15V145.56c0-8.13 3.86-10.89 4.03-11.03l.03-.03 54.18-32.81s1.26-1.06 5.19-3.28c4.03-2.25 7.89 1.02 7.89 1.02l1.16 1.06c4.23 4.81-.51 7.96-.51 7.96l-47.42 28.03c-7.14 2.39-6.15 14.31-6.15 14.31v174.16c0 10.72 3.72 12.12 3.72 12.12s14.31 9.49 25.64 15.06c11.3 5.6 18.44-.17 18.44-.17s63.16-37.69 67.81-41.11c4.64-3.41 3.76-12.43 3.76-12.43ZM178.7 184.46c4.75-3.62 4.06-9.66 4.06-9.66v-56.91l5.84-3.48s11.1-5.29 11.92 6.45v62.51s.44 9.42-3.59 11.44c-4.06 2.01-57.12 34.65-57.12 34.65s-9.22 6.08-12.6-1.81l-.14-11.81c10.48-6.15 47.59-28.3 51.62-31.38Zm-46.77-35.99 31.66-18.07.3 32.71c.44 9.63-4.51 11.68-4.51 11.68l-31.48 18.2-1.06.14-.31-30.01s-1.54-10.11 5.39-14.65Zm1.16 107.27 35.99-21.61v38.48s-.27 6.52-6.35 10.34c-4.95 3.14-28.34 16.7-36.63 21.44V265.4s.27-6.65 7-9.66Zm74.63 33.97s0 8.33-4.51 10.99c-4.51 2.7-64.53 39.6-64.53 39.6s-11.4 4.31-12.6-6.08v-7.44l55.79-34.18s6.93-3.11 6.73-11.2c-.17-6.62-.07-44.96-.03-59l6.32-3.79s12.63-4.92 12.84 5.84v65.24Z"/></svg>